HIERARCHY
ROOT hip
{
  OFFSET 0 90.174 2.4664
  CHANNELS 6 Xposition Yposition Zposition Zrotation Xrotation Yrotation
  JOINT abdomen
  {
    OFFSET 0 -1.186 -1.5018
    CHANNELS 6 Xposition Yposition Zposition Zrotation Xrotation Yrotation
    JOINT abdomen2
    {
      OFFSET 0 9.964 0.2134
      CHANNELS 6 Xposition Yposition Zposition Zrotation Xrotation Yrotation
      JOINT chest
      {
        OFFSET 0 13.134 -3.2573
        CHANNELS 6 Xposition Yposition Zposition Zrotation Xrotation Yrotation
        JOINT neck
        {
          OFFSET 0 20.686 -1.6905
          CHANNELS 6 Xposition Yposition Zposition Zrotation Xrotation Yrotation
          JOINT head
          {
            OFFSET 0 7.238 -0.1237
            CHANNELS 6 Xposition Yposition Zposition Zrotation Xrotation Yrotation
            End Site
            {
              OFFSET 0 0 0
            }
          }
        }
        JOINT lCollar
        {
          OFFSET 1.7069 20.075 5.0056
          CHANNELS 6 Xposition Yposition Zposition Zrotation Xrotation Yrotation
          JOINT lShldr
          {
            OFFSET 13.6458 -0.047 -4.849
            CHANNELS 6 Xposition Yposition Zposition Zrotation Xrotation Yrotation
            JOINT lForeArm
            {
              OFFSET 28.3255 -0.9759 2.2888
              CHANNELS 6 Xposition Yposition Zposition Zrotation Xrotation Yrotation
              JOINT lHand
              {
                OFFSET 22.1583 -0.53 10.8316
                CHANNELS 6 Xposition Yposition Zposition Zrotation Xrotation Yrotation
                JOINT lThumb1
                {
                  OFFSET 0.786 0.112 2.5817
                  CHANNELS 6 Xposition Yposition Zposition Zrotation Xrotation Yrotation
                  JOINT lThumb2
                  {
                    OFFSET 0.3601 -0.878 4.2331
                    CHANNELS 6 Xposition Yposition Zposition Zrotation Xrotation Yrotation
                    JOINT lThumb2_End
                    {
                      OFFSET 1.8127 -1.216 2.2227
                      CHANNELS 6 Xposition Yposition Zposition Zrotation Xrotation Yrotation
                      End Site
                      {
                        OFFSET 0.0181 -0.0122 0.0222
                      }
                    }
                  }
                }
                JOINT lCarpal1
                {
                  OFFSET 0.9571 1.114 1.7695
                  CHANNELS 6 Xposition Yposition Zposition Zrotation Xrotation Yrotation
                  JOINT lIndex1
                  {
                    OFFSET 4.1246 0.487 4.1451
                    CHANNELS 6 Xposition Yposition Zposition Zrotation Xrotation Yrotation
                    JOINT lIndex2
                    {
                      OFFSET 3.4052 -1.454 2.7682
                      CHANNELS 6 Xposition Yposition Zposition Zrotation Xrotation Yrotation
                      JOINT lIndex2_End
                      {
                        OFFSET 1.4531 -1.795 1.2713
                        CHANNELS 6 Xposition Yposition Zposition Zrotation Xrotation Yrotation
                        End Site
                        {
                          OFFSET 0.0145 -0.0179 0.0127
                        }
                      }
                    }
                  }
                  JOINT lMid1
                  {
                    OFFSET 5.6954 0.21 2.1184
                    CHANNELS 6 Xposition Yposition Zposition Zrotation Xrotation Yrotation
                    JOINT lMid2
                    {
                      OFFSET 3.9766 -1.54 2.3863
                      CHANNELS 6 Xposition Yposition Zposition Zrotation Xrotation Yrotation
                      JOINT lMid2_End
                      {
                        OFFSET 1.4042 -1.926 1.125
                        CHANNELS 6 Xposition Yposition Zposition Zrotation Xrotation Yrotation
                        End Site
                        {
                          OFFSET 0.014 -0.0193 0.0113
                        }
                      }
                    }
                  }
                }
                JOINT lCarpal2
                {
                  OFFSET 2.0956 0.66 -0.3894
                  CHANNELS 6 Xposition Yposition Zposition Zrotation Xrotation Yrotation
                  JOINT lRing1
                  {
                    OFFSET 5.0395 -0.09 2.4971
                    CHANNELS 6 Xposition Yposition Zposition Zrotation Xrotation Yrotation
                    JOINT lRing2
                    {
                      OFFSET 3.7921 -1.552 1.4806
                      CHANNELS 6 Xposition Yposition Zposition Zrotation Xrotation Yrotation
                      JOINT lRing2_End
                      {
                        OFFSET 1.4655 -1.808 0.9609
                        CHANNELS 6 Xposition Yposition Zposition Zrotation Xrotation Yrotation
                        End Site
                        {
                          OFFSET 0.0147 -0.0181 0.0096
                        }
                      }
                    }
                  }
                  JOINT lPinky1
                  {
                    OFFSET 4.9141 -1.269 0.3591
                    CHANNELS 6 Xposition Yposition Zposition Zrotation Xrotation Yrotation
                    JOINT lPinky2
                    {
                      OFFSET 3.1477 -1.685 0.8462
                      CHANNELS 6 Xposition Yposition Zposition Zrotation Xrotation Yrotation
                      JOINT lPinky2_End
                      {
                        OFFSET 0.8055 -1.585 0.7955
                        CHANNELS 6 Xposition Yposition Zposition Zrotation Xrotation Yrotation
                        End Site
                        {
                          OFFSET 0.0081 -0.0158 0.008
                        }
                      }
                    }
                  }
                }
              }
            }
          }
        }
        JOINT rCollar
        {
          OFFSET -1.7069 20.075 5.0056
          CHANNELS 6 Xposition Yposition Zposition Zrotation Xrotation Yrotation
          JOINT rShldr
          {
            OFFSET -13.6458 -0.047 -4.849
            CHANNELS 6 Xposition Yposition Zposition Zrotation Xrotation Yrotation
            JOINT rForeArm
            {
              OFFSET -28.3255 -0.9759 2.2888
              CHANNELS 6 Xposition Yposition Zposition Zrotation Xrotation Yrotation
              JOINT rHand
              {
                OFFSET -22.1583 -0.53 10.8316
                CHANNELS 6 Xposition Yposition Zposition Zrotation Xrotation Yrotation
                JOINT rThumb1
                {
                  OFFSET -0.786 0.112 2.5817
                  CHANNELS 6 Xposition Yposition Zposition Zrotation Xrotation Yrotation
                  JOINT rThumb2
                  {
                    OFFSET -0.3601 -0.878 4.2331
                    CHANNELS 6 Xposition Yposition Zposition Zrotation Xrotation Yrotation
                    JOINT rThumb2_End
                    {
                      OFFSET -1.8127 -1.216 2.2227
                      CHANNELS 6 Xposition Yposition Zposition Zrotation Xrotation Yrotation
                      End Site
                      {
                        OFFSET -0.0181 -0.0122 0.0222
                      }
                    }
                  }
                }
                JOINT rCarpal1
                {
                  OFFSET -0.9571 1.114 1.7695
                  CHANNELS 6 Xposition Yposition Zposition Zrotation Xrotation Yrotation
                  JOINT rIndex1
                  {
                    OFFSET -4.1246 0.487 4.1451
                    CHANNELS 6 Xposition Yposition Zposition Zrotation Xrotation Yrotation
                    JOINT rIndex2
                    {
                      OFFSET -3.4052 -1.454 2.7682
                      CHANNELS 6 Xposition Yposition Zposition Zrotation Xrotation Yrotation
                      JOINT rIndex2_End
                      {
                        OFFSET -1.4531 -1.795 1.2713
                        CHANNELS 6 Xposition Yposition Zposition Zrotation Xrotation Yrotation
                        End Site
                        {
                          OFFSET -0.0145 -0.018 0.0127
                        }
                      }
                    }
                  }
                  JOINT rMid1
                  {
                    OFFSET -5.6954 0.21 2.1184
                    CHANNELS 6 Xposition Yposition Zposition Zrotation Xrotation Yrotation
                    JOINT rMid2
                    {
                      OFFSET -3.9766 -1.54 2.3863
                      CHANNELS 6 Xposition Yposition Zposition Zrotation Xrotation Yrotation
                      JOINT rMid2_End
                      {
                        OFFSET -1.4042 -1.926 1.125
                        CHANNELS 6 Xposition Yposition Zposition Zrotation Xrotation Yrotation
                        End Site
                        {
                          OFFSET -0.014 -0.0193 0.0113
                        }
                      }
                    }
                  }
                }
                JOINT rCarpal2
                {
                  OFFSET -2.0956 0.66 -0.3894
                  CHANNELS 6 Xposition Yposition Zposition Zrotation Xrotation Yrotation
                  JOINT rRing1
                  {
                    OFFSET -5.0395 -0.09 2.4971
                    CHANNELS 6 Xposition Yposition Zposition Zrotation Xrotation Yrotation
                    JOINT rRing2
                    {
                      OFFSET -3.7921 -1.552 1.4806
                      CHANNELS 6 Xposition Yposition Zposition Zrotation Xrotation Yrotation
                      JOINT rRing2_End
                      {
                        OFFSET -1.4655 -1.808 0.9609
                        CHANNELS 6 Xposition Yposition Zposition Zrotation Xrotation Yrotation
                        End Site
                        {
                          OFFSET -0.0147 -0.0181 0.0096
                        }
                      }
                    }
                  }
                  JOINT rPinky1
                  {
                    OFFSET -4.9141 -1.269 0.3592
                    CHANNELS 6 Xposition Yposition Zposition Zrotation Xrotation Yrotation
                    JOINT rPinky2
                    {
                      OFFSET -3.1477 -1.685 0.8462
                      CHANNELS 6 Xposition Yposition Zposition Zrotation Xrotation Yrotation
                      JOINT rPinky2_End
                      {
                        OFFSET -0.8055 -1.585 0.7955
                        CHANNELS 6 Xposition Yposition Zposition Zrotation Xrotation Yrotation
                        End Site
                        {
                          OFFSET -0.0081 -0.0158 0.008
                        }
                      }
                    }
                  }
                }
              }
            }
          }
        }
      }
    }
  }
  JOINT lThigh
  {
    OFFSET 8.367 -8.2066 0.5982
    CHANNELS 6 Xposition Yposition Zposition Zrotation Xrotation Yrotation
    JOINT lShin
    {
      OFFSET 2.1923 -43.463 -0.4932
      CHANNELS 6 Xposition Yposition Zposition Zrotation Xrotation Yrotation
      JOINT lFoot
      {
        OFFSET 0.7333 -45.8593 -2.6451
        CHANNELS 6 Xposition Yposition Zposition Zrotation Xrotation Yrotation
        End Site
        {
          OFFSET 2.6618 -4.2699 12.3931
        }
      }
    }
  }
  JOINT rThigh
  {
    OFFSET -8.367 -8.2066 0.5982
    CHANNELS 6 Xposition Yposition Zposition Zrotation Xrotation Yrotation
    JOINT rShin
    {
      OFFSET -2.1923 -43.463 -0.4931
      CHANNELS 6 Xposition Yposition Zposition Zrotation Xrotation Yrotation
      JOINT rFoot
      {
        OFFSET -0.7333 -45.8593 -2.6451
        CHANNELS 6 Xposition Yposition Zposition Zrotation Xrotation Yrotation
        End Site
        {
          OFFSET -2.6618 -4.2699 12.3931
        }
      }
    }
  }
}
MOTION
Frames:	4
Frame Time:	0.0333333
0 90.174 2.4664 0 0 -0 0 -1.186 -1.5018 0 0 -0 0 9.964 0.2134 0 0 -0 0 13.134 -3.2573 0 0 -0 0 20.686 -1.6905 0 0 -0 0 7.238 -0.1237 0 0 -0 1.7069 20.075 5.0056 0 0 -0 13.6458 -0.047 -4.849 1.66051 0.0835086 5.75766 28.3255 -0.9759 2.2888 -0.0175111 0.895433 15.7816 22.1583 -0.53 10.8316 7.95139e-016 -1.98785e-016 -0 0.786 0.112 2.5817 5.46658e-016 -3.97569e-016 -0 0.3601 -0.878 4.2331 5.96354e-016 0 -0 1.8127 -1.216 2.2227 3.97569e-016 1.98785e-016 9.54166e-015 0.9571 1.114 1.7695 1.49089e-016 -3.97569e-016 -0 4.1246 0.487 4.1451 6.4605e-016 0 3.18055e-015 3.4052 -1.454 2.7682 5.96354e-016 0 3.18055e-015 1.4531 -1.795 1.2713 8.94531e-016 -1.98785e-016 6.36111e-015 5.6954 0.21 2.1184 6.4605e-016 0 3.18055e-015 3.9766 -1.54 2.3863 5.96354e-016 0 3.18055e-015 1.4042 -1.926 1.125 8.94531e-016 -1.98785e-016 6.36111e-015 2.0956 0.66 -0.3894 1.49089e-016 -3.97569e-016 -0 5.0395 -0.09 2.4971 6.4605e-016 0 3.18055e-015 3.7921 -1.552 1.4806 5.96354e-016 0 3.18055e-015 1.4655 -1.808 0.9609 8.94531e-016 -1.98785e-016 6.36111e-015 4.9141 -1.269 0.3591 6.4605e-016 0 3.18055e-015 3.1477 -1.685 0.8462 5.96354e-016 0 3.18055e-015 0.8055 -1.585 0.7955 8.94531e-016 -1.98785e-016 6.36111e-015 -1.7069 20.075 5.0056 0 0 -0 -13.6458 -0.047 -4.849 -1.4496 0.0636048 -5.0245 -28.3255 -0.9759 2.2888 -1.74811 1.20616 -16.8394 -22.1583 -0.53 10.8316 -1.19271e-015 1.98785e-016 -3.18055e-015 -0.786 0.112 2.5817 -3.97569e-016 1.98785e-016 -3.18055e-015 -0.3601 -0.878 4.2331 -2.98177e-016 1.98785e-016 -3.18055e-015 -1.8127 -1.216 2.2227 -2.98177e-016 3.97569e-016 -0 -0.9571 1.114 1.7695 4.96962e-016 0 -6.36111e-015 -4.1246 0.487 4.1451 -9.93923e-017 3.97569e-016 -0 -3.4052 -1.454 2.7682 -8.94531e-016 5.96354e-016 -0 -1.4531 -1.795 1.2713 -3.97569e-016 3.97569e-016 -0 -5.6954 0.21 2.1184 -9.93923e-017 3.97569e-016 -0 -3.9766 -1.54 2.3863 -8.94531e-016 5.96354e-016 -0 -1.4042 -1.926 1.125 -3.97569e-016 3.97569e-016 -0 -2.0956 0.66 -0.3894 4.96962e-016 0 -6.36111e-015 -5.0395 -0.09 2.4971 -9.93923e-017 3.97569e-016 -0 -3.7921 -1.552 1.4806 -8.94531e-016 5.96354e-016 -0 -1.4655 -1.808 0.9609 -3.97569e-016 3.97569e-016 -0 -4.9141 -1.269 0.3592 -9.93923e-017 3.97569e-016 -0 -3.1477 -1.685 0.8462 -8.94531e-016 5.96354e-016 -0 -0.8055 -1.585 0.7955 -3.97569e-016 3.97569e-016 -0 8.367 -8.2066 0.5982 -4.66115 -1.03232 0.120763 2.1923 -43.463 -0.4932 0.00990601 1.55097 0.177175 0.7333 -45.8593 -2.6451 4.65196 -0.54114 -0.255042 -8.367 -8.2066 0.5982 4.66115 -1.03222 -0.120763 -2.1923 -43.463 -0.4931 -0.00990459 1.5509 -0.177176 -0.7333 -45.8593 -2.6451 -4.65196 -0.541171 0.255041 
42.3098 12.9955 44.9019 0 70.9971 -0 0 -1.186 -1.5018 -0.323988 3.8084 -0.0468211 7.10543e-015 9.964 0.2134 -0.647001 7.61703 -0.072243 -7.10543e-015 13.134 -3.2573 -0.647001 7.61703 -0.0722427 -7.10543e-015 20.686 -1.6905 -1.60082e-006 -24.0062 -2.63458e-007 -7.10543e-015 7.238 -0.1237 -0.0600576 -22.3427 -0.0243368 1.7069 20.075 5.0056 -8.00266 -0.194442 -0.00133036 13.6458 -0.047 -4.849 -78.133 -10.8867 -57.6142 28.3255 -0.9759 2.2888 45.995 -31.4628 -92.8728 22.1583 -0.53 10.8316 -3.82919 9.2555 -0.44811 0.786 0.112 2.5817 1.00933e-006 -1.34895e-006 -2.29561e-007 0.3601 -0.878 4.2331 2.86294e-006 -1.0141e-006 -5.01222e-007 1.8127 -1.216 2.2227 5.04663e-007 -6.74475e-007 -1.1478e-007 0.9571 1.114 1.7695 -7.95139e-016 4.82053e-015 -0 4.1246 0.487 4.1451 1.00933e-006 -1.34895e-006 -2.29561e-007 3.4052 -1.454 2.7682 2.86294e-006 -1.0141e-006 -5.01222e-007 1.4531 -1.795 1.2713 5.04663e-007 -6.74475e-007 -1.1478e-007 5.6954 0.21 2.1184 1.00933e-006 -1.34895e-006 -2.29561e-007 3.9766 -1.54 2.3863 2.86294e-006 -1.0141e-006 -5.01222e-007 1.4042 -1.926 1.125 5.04663e-007 -6.74475e-007 -1.1478e-007 2.0956 0.66 -0.3894 -7.95139e-016 4.82053e-015 -0 5.0395 -0.09 2.4971 1.00933e-006 -1.34895e-006 -2.29561e-007 3.7921 -1.552 1.4806 2.86294e-006 -1.0141e-006 -5.01222e-007 1.4655 -1.808 0.9609 5.04663e-007 -6.74475e-007 -1.1478e-007 4.9141 -1.269 0.3591 1.00933e-006 -1.34895e-006 -2.29561e-007 3.1477 -1.685 0.8462 2.86294e-006 -1.0141e-006 -5.01222e-007 0.8055 -1.585 0.7955 5.04663e-007 -6.74475e-007 -1.1478e-007 -1.7069 20.075 5.0056 7.99915 -0.1947 -0.00216377 -13.6458 -0.047 -4.849 78.2434 -10.7119 58.3657 -28.3255 -0.9759 2.2888 -46.2745 -32.506 92.0293 -22.1583 -0.53 10.8316 3.75112 9.26136 0.697125 -0.786 0.112 2.5817 8.09294e-007 -1.705e-006 -5.40453e-008 -0.3601 -0.878 4.2331 -5.20143e-007 -6.64718e-007 1.02137e-007 -1.8127 -1.216 2.2227 -5.20143e-007 -6.64718e-007 1.02137e-007 -0.9571 1.114 1.7695 5.46658e-016 4.03781e-016 -1.59028e-015 -4.1246 0.487 4.1451 8.09294e-007 -1.705e-006 -5.40453e-008 -3.4052 -1.454 2.7682 -5.20143e-007 -6.64718e-007 1.02137e-007 -1.4531 -1.795 1.2713 -5.20143e-007 -6.64718e-007 1.02137e-007 -5.6954 0.21 2.1184 8.09294e-007 -1.705e-006 -5.40453e-008 -3.9766 -1.54 2.3863 -5.20143e-007 -6.64718e-007 1.02137e-007 -1.4042 -1.926 1.125 -5.20143e-007 -6.64718e-007 1.02137e-007 -2.0956 0.66 -0.3894 5.46658e-016 4.03781e-016 -1.59028e-015 -5.0395 -0.09 2.4971 8.09294e-007 -1.705e-006 -5.40453e-008 -3.7921 -1.552 1.4806 -5.20143e-007 -6.64718e-007 1.02137e-007 -1.4655 -1.808 0.9609 -5.20143e-007 -6.64718e-007 1.02137e-007 -4.9141 -1.269 0.3592 8.09294e-007 -1.705e-006 -5.40453e-008 -3.1477 -1.685 0.8462 -5.20143e-007 -6.64718e-007 1.02137e-007 -0.8055 -1.585 0.7955 -5.20143e-007 -6.64718e-007 1.02137e-007 8.367 -8.2066 0.5982 108.758 -34.1958 96.6456 2.1923 -43.463 -0.4932 -177.101 50.5453 -174.511 0.7333 -45.8593 -2.6451 10.4764 23.5127 3.81156 -8.367 -8.2066 0.5982 -108.761 -34.1895 -96.6465 -2.1923 -43.463 -0.4931 177.098 50.5462 174.509 -0.7333 -45.8593 -2.6451 -10.48 23.5125 -3.81413 
42.311 13.0059 44.8243 0 70.9971 -0 0 -1.186 -1.5018 -0.32429 3.88615 -0.0467898 7.10543e-015 9.964 0.2134 -0.647633 7.77254 -0.0717221 0 13.134 -3.2573 -0.647634 7.77256 -0.071722 0 20.686 -1.6905 -2.76267e-005 -24.5617 -1.28281e-005 0 7.238 -0.1237 -0.0602524 -22.6759 -0.0247636 1.7069 20.075 5.0056 -7.80946 -0.822311 0.396232 13.6458 -0.047 -4.849 -78.2133 -10.6683 -57.6153 28.3255 -0.9759 2.2888 45.995 -31.4628 -92.8728 22.1583 -0.53 10.8316 -3.99159 9.01567 -0.106003 0.786 0.112 2.5817 5.03647e-007 -6.7523e-007 -1.14781e-007 0.3601 -0.878 4.2331 5.03647e-007 -6.7523e-007 -1.14781e-007 1.8127 -1.216 2.2227 5.03647e-007 -6.7523e-007 -1.14781e-007 0.9571 1.114 1.7695 1.09332e-015 -7.20594e-016 3.18055e-015 4.1246 0.487 4.1451 5.03647e-007 -6.7523e-007 -1.14781e-007 3.4052 -1.454 2.7682 5.03647e-007 -6.7523e-007 -1.14781e-007 1.4531 -1.795 1.2713 5.03647e-007 -6.7523e-007 -1.14781e-007 5.6954 0.21 2.1184 5.03647e-007 -6.7523e-007 -1.14781e-007 3.9766 -1.54 2.3863 5.03647e-007 -6.7523e-007 -1.14781e-007 1.4042 -1.926 1.125 5.03647e-007 -6.7523e-007 -1.14781e-007 2.0956 0.66 -0.3894 1.09332e-015 -7.20594e-016 3.18055e-015 5.0395 -0.09 2.4971 5.03647e-007 -6.7523e-007 -1.14781e-007 3.7921 -1.552 1.4806 5.03647e-007 -6.7523e-007 -1.14781e-007 1.4655 -1.808 0.9609 5.03647e-007 -6.7523e-007 -1.14781e-007 4.9141 -1.269 0.3591 5.03647e-007 -6.7523e-007 -1.14781e-007 3.1477 -1.685 0.8462 5.03647e-007 -6.7523e-007 -1.14781e-007 0.8055 -1.585 0.7955 5.03647e-007 -6.7523e-007 -1.14781e-007 -1.7069 20.075 5.0056 7.82867 -0.834024 -0.418095 -13.6458 -0.047 -4.849 78.3228 -10.4918 58.3612 -28.3255 -0.9759 2.2888 -46.2746 -32.506 92.0292 -22.1583 -0.53 10.8316 3.93031 9.02591 0.355591 -0.786 0.112 2.5817 4.18632e-007 1.59289e-006 -1.32138e-006 -0.3601 -0.878 4.2331 5.1912e-007 6.65516e-007 -1.02137e-007 -1.8127 -1.216 2.2227 5.1912e-007 6.65516e-007 -1.02137e-007 -0.9571 1.114 1.7695 -1.09332e-015 4.47266e-016 -0 -4.1246 0.487 4.1451 4.18632e-007 1.59289e-006 -1.32138e-006 -3.4052 -1.454 2.7682 5.1912e-007 6.65516e-007 -1.02137e-007 -1.4531 -1.795 1.2713 5.1912e-007 6.65516e-007 -1.02137e-007 -5.6954 0.21 2.1184 4.18632e-007 1.59289e-006 -1.32138e-006 -3.9766 -1.54 2.3863 5.1912e-007 6.65516e-007 -1.02137e-007 -1.4042 -1.926 1.125 5.1912e-007 6.65516e-007 -1.02137e-007 -2.0956 0.66 -0.3894 -1.09332e-015 4.47266e-016 -0 -5.0395 -0.09 2.4971 4.18632e-007 1.59289e-006 -1.32138e-006 -3.7921 -1.552 1.4806 5.1912e-007 6.65516e-007 -1.02137e-007 -1.4655 -1.808 0.9609 5.1912e-007 6.65516e-007 -1.02137e-007 -4.9141 -1.269 0.3592 4.18632e-007 1.59289e-006 -1.32138e-006 -3.1477 -1.685 0.8462 5.1912e-007 6.65516e-007 -1.02137e-007 -0.8055 -1.585 0.7955 5.1912e-007 6.65516e-007 -1.02137e-007 8.367 -8.2066 0.5982 108.916 -34.0514 96.7709 2.1923 -43.463 -0.4932 -177.101 50.5521 -174.508 0.7333 -45.8593 -2.6451 10.6782 23.5445 3.70834 -8.367 -8.2066 0.5982 -108.915 -34.0486 -96.7261 -2.1923 -43.463 -0.4931 177.098 50.5537 174.503 -0.7333 -45.8593 -2.6451 -10.7013 23.5599 -3.64378 
42.3122 13.0163 44.7466 0 70.9971 -0 0 -1.186 -1.5018 -0.324588 3.96393 -0.0467579 0 9.964 0.2134 -0.64826 7.92804 -0.0711989 0 13.134 -3.2573 -0.64826 7.92805 -0.0711989 0 20.686 -1.6905 -5.16732e-007 -25.1166 -1.45565e-007 0 7.238 -0.1237 -0.0604513 -23.0093 -0.0251932 1.7069 20.075 5.0056 -7.61172 -1.44917 0.796296 13.6458 -0.047 -4.849 -78.2936 -10.4499 -57.616 28.3255 -0.9759 2.2888 45.995 -31.4628 -92.8728 22.1583 -0.53 10.8316 -4.15245 8.77484 0.23529 0.786 0.112 2.5817 -7.95139e-016 -9.59136e-015 6.36111e-015 0.3601 -0.878 4.2331 5.02652e-007 -6.75964e-007 -1.14789e-007 1.8127 -1.216 2.2227 1.72418e-031 -3.10601e-015 3.18055e-015 0.9571 1.114 1.7695 -7.95139e-016 -6.23687e-015 3.18055e-015 4.1246 0.487 4.1451 -9.93923e-017 2.80783e-015 6.36111e-015 3.4052 -1.454 2.7682 5.02652e-007 -6.75964e-007 -1.14789e-007 1.4531 -1.795 1.2713 3.97569e-016 -1.49089e-016 -3.18055e-015 5.6954 0.21 2.1184 -9.93923e-017 2.80783e-015 6.36111e-015 3.9766 -1.54 2.3863 5.02652e-007 -6.75964e-007 -1.14789e-007 1.4042 -1.926 1.125 3.97569e-016 -1.49089e-016 -3.18055e-015 2.0956 0.66 -0.3894 -7.95139e-016 -6.23687e-015 3.18055e-015 5.0395 -0.09 2.4971 -9.93923e-017 2.80783e-015 6.36111e-015 3.7921 -1.552 1.4806 5.02652e-007 -6.75964e-007 -1.14789e-007 1.4655 -1.808 0.9609 3.97569e-016 -1.49089e-016 -3.18055e-015 4.9141 -1.269 0.3591 -9.93923e-017 2.80783e-015 6.36111e-015 3.1477 -1.685 0.8462 5.02652e-007 -6.75964e-007 -1.14789e-007 0.8055 -1.585 0.7955 3.97569e-016 -1.49089e-016 -3.18055e-015 -1.7069 20.075 5.0056 7.65338 -1.47248 -0.836348 -13.6458 -0.047 -4.849 78.4021 -10.2718 58.3563 -28.3255 -0.9759 2.2888 -46.2745 -32.506 92.0292 -22.1583 -0.53 10.8316 4.108 8.78935 0.0149276 -0.786 0.112 2.5817 -5.18119e-007 -6.66293e-007 1.02144e-007 -0.3601 -0.878 4.2331 1.98785e-015 6.10642e-015 3.18055e-015 -1.8127 -1.216 2.2227 2.96349e-007 -2.36882e-006 4.80538e-008 -0.9571 1.114 1.7695 6.70898e-016 -3.72721e-016 1.59028e-015 -4.1246 0.487 4.1451 -5.18119e-007 -6.66293e-007 1.02145e-007 -3.4052 -1.454 2.7682 -3.72721e-016 9.2497e-015 1.59028e-015 -1.4531 -1.795 1.2713 2.96349e-007 -2.36882e-006 4.80538e-008 -5.6954 0.21 2.1184 -5.18119e-007 -6.66293e-007 1.02145e-007 -3.9766 -1.54 2.3863 -3.72721e-016 9.2497e-015 1.59028e-015 -1.4042 -1.926 1.125 2.96349e-007 -2.36882e-006 4.80538e-008 -2.0956 0.66 -0.3894 6.70898e-016 -3.72721e-016 1.59028e-015 -5.0395 -0.09 2.4971 -5.18119e-007 -6.66293e-007 1.02145e-007 -3.7921 -1.552 1.4806 -3.72721e-016 9.2497e-015 1.59028e-015 -1.4655 -1.808 0.9609 2.96349e-007 -2.36882e-006 4.80538e-008 -4.9141 -1.269 0.3592 -5.18119e-007 -6.66293e-007 1.02145e-007 -3.1477 -1.685 0.8462 -3.72721e-016 9.2497e-015 1.59028e-015 -0.8055 -1.585 0.7955 2.96349e-007 -2.36882e-006 4.80538e-008 8.367 -8.2066 0.5982 109.073 -33.9067 96.8956 2.1923 -43.463 -0.4932 -177.101 50.5588 -174.505 0.7333 -45.8593 -2.6451 10.8802 23.5758 3.60498 -8.367 -8.2066 0.5982 -109.069 -33.9076 -96.805 -2.1923 -43.463 -0.4931 177.099 50.5611 174.497 -0.7333 -45.8593 -2.6451 -10.9228 23.6065 -3.47321 
